<svg width="110" height="36" viewBox="0 0 110 36" fill="none" xmlns="http://www.w3.org/2000/svg">
<path d="M56.832 26.4V32H56.136V29.464H53.288V32H52.6V26.4H53.288V28.904H56.136V26.4H56.832ZM64.6137 32.056C64.187 32.056 63.8244 31.9547 63.5257 31.752C63.2324 31.544 63.011 31.2747 62.8617 30.944C62.7124 30.608 62.6377 30.248 62.6377 29.864C62.6377 29.48 62.7124 29.1227 62.8617 28.792C63.011 28.456 63.2324 28.1867 63.5257 27.984C63.8244 27.776 64.187 27.672 64.6137 27.672C65.0404 27.672 65.4004 27.776 65.6937 27.984C65.9924 28.1867 66.2137 28.456 66.3577 28.792C66.507 29.128 66.5817 29.4853 66.5817 29.864C66.5817 30.2427 66.507 30.6 66.3577 30.936C66.2084 31.272 65.9844 31.544 65.6857 31.752C65.3924 31.9547 65.035 32.056 64.6137 32.056ZM64.6137 31.464C64.875 31.464 65.1017 31.392 65.2937 31.248C65.491 31.104 65.6404 30.912 65.7417 30.672C65.843 30.4267 65.8937 30.1547 65.8937 29.856C65.8937 29.3973 65.779 29.016 65.5497 28.712C65.3204 28.408 65.0084 28.256 64.6137 28.256C64.347 28.256 64.115 28.328 63.9177 28.472C63.7257 28.616 63.579 28.8107 63.4777 29.056C63.3764 29.296 63.3257 29.5627 63.3257 29.856C63.3257 30.3147 63.4404 30.6987 63.6697 31.008C63.899 31.312 64.2137 31.464 64.6137 31.464ZM73.5155 28.336V30.784C73.5155 30.9813 73.5235 31.128 73.5395 31.224C73.5608 31.3147 73.6115 31.3867 73.6915 31.44C73.7768 31.4933 73.9128 31.52 74.0995 31.52C74.2275 31.52 74.3662 31.5013 74.5155 31.464V31.96C74.4782 31.976 74.3955 31.992 74.2675 32.008C74.1448 32.024 74.0168 32.032 73.8835 32.032C73.5742 32.032 73.3422 31.9893 73.1875 31.904C73.0382 31.8133 72.9395 31.6933 72.8915 31.544C72.8488 31.3893 72.8275 31.1867 72.8275 30.936V28.336H72.0435V27.784H72.8275V26.4H73.5155V27.784H74.5155V28.336H73.5155ZM82.1041 32.056C81.6721 32.056 81.3068 31.952 81.0081 31.744C80.7148 31.536 80.4961 31.264 80.3521 30.928C80.2081 30.592 80.1361 30.2373 80.1361 29.864C80.1361 29.4853 80.2081 29.1307 80.3521 28.8C80.4961 28.464 80.7175 28.192 81.0161 27.984C81.3148 27.776 81.6801 27.672 82.1121 27.672C82.6775 27.672 83.1281 27.8613 83.4641 28.24C83.8055 28.6187 83.9761 29.1627 83.9761 29.872V30.064H80.8241V30.12C80.8241 30.3547 80.8775 30.576 80.9841 30.784C81.0908 30.992 81.2401 31.16 81.4321 31.288C81.6241 31.416 81.8455 31.48 82.0961 31.48C82.3681 31.48 82.6028 31.4107 82.8001 31.272C82.9975 31.1333 83.1441 30.9467 83.2401 30.712H83.9201C83.8081 31.096 83.5975 31.416 83.2881 31.672C82.9841 31.928 82.5895 32.056 82.1041 32.056ZM83.2961 29.576C83.2748 29.096 83.1575 28.7493 82.9441 28.536C82.7308 28.3227 82.4508 28.216 82.1041 28.216C81.7255 28.216 81.4241 28.3413 81.2001 28.592C80.9761 28.8427 80.8561 29.1707 80.8401 29.576H83.2961ZM90.8722 32.032C90.5575 32.032 90.3229 31.9813 90.1682 31.88C90.0135 31.7787 89.9149 31.648 89.8722 31.488C89.8349 31.3227 89.8162 31.1093 89.8162 30.848L89.8242 26H90.5122V30.744C90.5122 30.9467 90.5202 31.0987 90.5362 31.2C90.5575 31.296 90.6082 31.3733 90.6882 31.432C90.7735 31.4907 90.9069 31.52 91.0882 31.52C91.2002 31.52 91.2989 31.512 91.3842 31.496V31.992C91.2402 32.0187 91.0695 32.032 90.8722 32.032Z" fill="white"/>
<path d="M34 29L46 29" stroke="white" stroke-width="0.6"/>
<path d="M96 29L108 29" stroke="white" stroke-width="0.6"/>
<path d="M42.262 17.904H37.942L36.934 21H34.414L38.95 8.4H41.29L45.808 21H43.288L42.262 17.904ZM41.632 15.978L40.138 11.496H40.03L38.572 15.978H41.632ZM50.2145 21.072C49.3265 21.072 48.6665 20.94 48.2345 20.676C47.8145 20.4 47.5505 20.064 47.4425 19.668C47.3465 19.26 47.2985 18.744 47.2985 18.12V7.5H49.7825V17.616C49.7825 18.048 49.8005 18.372 49.8365 18.588C49.8845 18.792 50.0045 18.96 50.1965 19.092C50.4005 19.212 50.7185 19.272 51.1505 19.272C51.2945 19.272 51.4625 19.26 51.6545 19.236V20.964C51.0425 21.036 50.5625 21.072 50.2145 21.072ZM56.8713 13.44V17.67C56.8713 18.09 56.8893 18.402 56.9253 18.606C56.9733 18.81 57.0933 18.972 57.2853 19.092C57.4773 19.212 57.7893 19.272 58.2213 19.272C58.4733 19.272 58.7313 19.248 58.9953 19.2V20.928C58.8633 20.952 58.6233 20.982 58.2753 21.018C57.9393 21.054 57.6093 21.072 57.2853 21.072C56.4093 21.072 55.7553 20.946 55.3233 20.694C54.9033 20.43 54.6393 20.106 54.5312 19.722C54.4233 19.326 54.3693 18.822 54.3693 18.21V13.44H52.7853V11.496H54.3873V8.4H56.8713V11.496H58.9953V13.44H56.8713ZM65.1314 21.144C64.1354 21.144 63.2954 20.922 62.6114 20.478C61.9394 20.022 61.4354 19.422 61.0994 18.678C60.7634 17.934 60.5954 17.118 60.5954 16.23C60.5954 15.342 60.7574 14.526 61.0814 13.782C61.4174 13.026 61.9274 12.42 62.6114 11.964C63.2954 11.508 64.1354 11.28 65.1314 11.28C66.1274 11.28 66.9674 11.508 67.6514 11.964C68.3354 12.408 68.8454 13.002 69.1814 13.746C69.5174 14.49 69.6854 15.306 69.6854 16.194C69.6854 17.082 69.5174 17.904 69.1814 18.66C68.8454 19.404 68.3354 20.004 67.6514 20.46C66.9674 20.916 66.1274 21.144 65.1314 21.144ZM65.1314 19.128C65.8274 19.128 66.3494 18.852 66.6974 18.3C67.0574 17.736 67.2374 17.034 67.2374 16.194C67.2374 15.354 67.0574 14.664 66.6974 14.124C66.3494 13.572 65.8274 13.296 65.1314 13.296C64.4354 13.296 63.9134 13.572 63.5654 14.124C63.2174 14.664 63.0434 15.354 63.0434 16.194C63.0434 17.034 63.2174 17.736 63.5654 18.3C63.9254 18.852 64.4474 19.128 65.1314 19.128ZM78.7947 10.578H75.3747V21H72.8907V10.578H69.4707V8.4H78.7947V10.578ZM83.2369 21.144C82.2409 21.144 81.4009 20.916 80.7169 20.46C80.0329 19.992 79.5229 19.386 79.1869 18.642C78.8629 17.886 78.7009 17.076 78.7009 16.212C78.7009 15.348 78.8629 14.544 79.1869 13.8C79.5229 13.044 80.0329 12.432 80.7169 11.964C81.4009 11.496 82.2469 11.262 83.2549 11.262C84.5869 11.262 85.6429 11.688 86.4229 12.54C87.2149 13.392 87.6109 14.622 87.6109 16.23V16.914H81.0949V17.058C81.0949 17.634 81.2929 18.132 81.6889 18.552C82.0849 18.96 82.5829 19.164 83.1829 19.164C83.6509 19.164 84.0469 19.056 84.3709 18.84C84.6949 18.624 84.9289 18.33 85.0729 17.958H87.5209C87.2689 18.894 86.7769 19.662 86.0449 20.262C85.3129 20.85 84.3769 21.144 83.2369 21.144ZM85.2169 15.294C85.1929 14.538 85.0009 13.98 84.6409 13.62C84.2809 13.26 83.8069 13.08 83.2189 13.08C82.5949 13.08 82.1029 13.278 81.7429 13.674C81.3829 14.07 81.1909 14.61 81.1669 15.294H85.2169ZM93.626 21.162C92.618 21.162 91.772 20.928 91.088 20.46C90.404 19.992 89.894 19.38 89.558 18.624C89.234 17.868 89.072 17.058 89.072 16.194C89.072 15.342 89.234 14.544 89.558 13.8C89.894 13.044 90.404 12.432 91.088 11.964C91.772 11.496 92.618 11.262 93.626 11.262C94.898 11.262 95.9 11.628 96.632 12.36C97.376 13.08 97.826 13.992 97.982 15.096H95.552C95.468 14.556 95.264 14.124 94.94 13.8C94.628 13.464 94.196 13.296 93.644 13.296C92.912 13.296 92.372 13.578 92.024 14.142C91.688 14.706 91.52 15.39 91.52 16.194C91.52 17.022 91.688 17.718 92.024 18.282C92.372 18.846 92.912 19.128 93.644 19.128C94.184 19.128 94.616 18.966 94.94 18.642C95.264 18.306 95.468 17.868 95.552 17.328H97.982C97.826 18.432 97.376 19.35 96.632 20.082C95.9 20.802 94.898 21.162 93.626 21.162ZM99.6783 7.626H102.198V12.954H102.324C102.54 12.486 102.888 12.09 103.368 11.766C103.848 11.43 104.43 11.262 105.114 11.262C106.35 11.262 107.22 11.658 107.724 12.45C108.24 13.242 108.498 14.142 108.498 15.15V21H106.014V15.564C106.014 14.868 105.846 14.322 105.51 13.926C105.186 13.53 104.718 13.332 104.106 13.332C103.506 13.332 103.038 13.536 102.702 13.944C102.366 14.352 102.198 14.892 102.198 15.564V21H99.6783V7.626Z" fill="white"/>
<path d="M12.7013 9.14564L3.04209 31.3176C2.88317 31.6824 3.19881 32.0767 3.57808 31.9871L6.02278 31.4097L8.95465 31.0036C9.28015 30.9586 9.55934 30.7428 9.69162 30.4341L16.3018 15.0067L22.9158 30.4428C23.046 30.7468 23.3189 30.961 23.6387 31.0103L26.2264 31.4097L28.4134 31.9705C28.7902 32.0672 29.1128 31.6806 28.9621 31.313L19.8891 9.18497C19.5947 8.46692 18.9099 8 18.1512 8H14.4226C13.679 8 13.0049 8.44868 12.7013 9.14564Z" fill="white"/>
</svg>
