<svg width="104" height="104" viewBox="0 0 104 104" fill="none" xmlns="http://www.w3.org/2000/svg">
<circle cx="52" cy="52" r="50.5" fill="#326BFF" stroke="white" stroke-width="3"/>
<path d="M40.3601 70.6666V75.3333H39.7801V73.2199H37.4068V75.3333H36.8335V70.6666H37.4068V72.7533H39.7801V70.6666H40.3601ZM46.8449 75.3799C46.4893 75.3799 46.1871 75.2955 45.9382 75.1266C45.6938 74.9533 45.5093 74.7288 45.3849 74.4533C45.2604 74.1733 45.1982 73.8733 45.1982 73.5533C45.1982 73.2333 45.2604 72.9355 45.3849 72.6599C45.5093 72.3799 45.6938 72.1555 45.9382 71.9866C46.1871 71.8133 46.4893 71.7266 46.8449 71.7266C47.2004 71.7266 47.5004 71.8133 47.7449 71.9866C47.9937 72.1555 48.1782 72.3799 48.2982 72.6599C48.4226 72.9399 48.4849 73.2377 48.4849 73.5533C48.4849 73.8688 48.4226 74.1666 48.2982 74.4466C48.1737 74.7266 47.9871 74.9533 47.7382 75.1266C47.4937 75.2955 47.196 75.3799 46.8449 75.3799ZM46.8449 74.8866C47.0626 74.8866 47.2515 74.8266 47.4115 74.7066C47.576 74.5866 47.7004 74.4266 47.7849 74.2266C47.8693 74.0221 47.9115 73.7955 47.9115 73.5466C47.9115 73.1644 47.816 72.8466 47.6249 72.5933C47.4337 72.3399 47.1737 72.2133 46.8449 72.2133C46.6226 72.2133 46.4293 72.2733 46.2649 72.3933C46.1049 72.5133 45.9826 72.6755 45.8982 72.8799C45.8138 73.0799 45.7715 73.3021 45.7715 73.5466C45.7715 73.9288 45.8671 74.2488 46.0582 74.5066C46.2493 74.7599 46.5115 74.8866 46.8449 74.8866ZM54.263 72.2799V74.3199C54.263 74.4844 54.2697 74.6066 54.283 74.6866C54.3008 74.7621 54.343 74.8221 54.4097 74.8666C54.4808 74.911 54.5941 74.9333 54.7497 74.9333C54.8563 74.9333 54.9719 74.9177 55.0963 74.8866V75.2999C55.0652 75.3133 54.9963 75.3266 54.8897 75.3399C54.7875 75.3533 54.6808 75.3599 54.5697 75.3599C54.3119 75.3599 54.1186 75.3244 53.9897 75.2533C53.8652 75.1777 53.783 75.0777 53.743 74.9533C53.7075 74.8244 53.6897 74.6555 53.6897 74.4466V72.2799H53.0363V71.8199H53.6897V70.6666H54.263V71.8199H55.0963V72.2799H54.263ZM61.4202 75.3799C61.0602 75.3799 60.7557 75.2933 60.5068 75.1199C60.2624 74.9466 60.0802 74.7199 59.9602 74.4399C59.8402 74.1599 59.7802 73.8644 59.7802 73.5533C59.7802 73.2377 59.8402 72.9421 59.9602 72.6666C60.0802 72.3866 60.2646 72.1599 60.5135 71.9866C60.7624 71.8133 61.0668 71.7266 61.4268 71.7266C61.8979 71.7266 62.2735 71.8844 62.5535 72.1999C62.8379 72.5155 62.9802 72.9688 62.9802 73.5599V73.7199H60.3535V73.7666C60.3535 73.9621 60.398 74.1466 60.4868 74.3199C60.5757 74.4933 60.7002 74.6333 60.8602 74.7399C61.0202 74.8466 61.2046 74.8999 61.4135 74.8999C61.6402 74.8999 61.8357 74.8421 62.0002 74.7266C62.1646 74.611 62.2868 74.4555 62.3668 74.2599H62.9335C62.8402 74.5799 62.6646 74.8466 62.4068 75.0599C62.1535 75.2733 61.8246 75.3799 61.4202 75.3799ZM62.4135 73.3133C62.3957 72.9133 62.2979 72.6244 62.1202 72.4466C61.9424 72.2688 61.7091 72.1799 61.4202 72.1799C61.1046 72.1799 60.8535 72.2844 60.6668 72.4933C60.4802 72.7022 60.3802 72.9755 60.3668 73.3133H62.4135ZM68.7269 75.3599C68.4646 75.3599 68.2691 75.3177 68.1402 75.2333C68.0113 75.1488 67.9291 75.0399 67.8935 74.9066C67.8624 74.7688 67.8469 74.591 67.8469 74.3733L67.8535 70.3333H68.4269V74.2866C68.4269 74.4555 68.4335 74.5821 68.4469 74.6666C68.4646 74.7466 68.5069 74.811 68.5735 74.8599C68.6446 74.9088 68.7557 74.9333 68.9069 74.9333C69.0002 74.9333 69.0824 74.9266 69.1535 74.9133V75.3266C69.0335 75.3488 68.8913 75.3599 68.7269 75.3599Z" fill="white"/>
<path d="M21.333 73.1665H31.333" stroke="white" stroke-width="0.499998"/>
<path d="M72.9995 73.1665H82.9995" stroke="white" stroke-width="0.499998"/>
<path d="M27.885 64.42H24.285L23.445 67H21.345L25.125 56.5H27.075L30.84 67H28.74L27.885 64.42ZM27.36 62.815L26.115 59.08H26.025L24.81 62.815H27.36ZM34.512 67.06C33.772 67.06 33.222 66.95 32.862 66.73C32.512 66.5 32.292 66.22 32.202 65.89C32.122 65.55 32.082 65.12 32.082 64.6V55.75H34.152V64.18C34.152 64.54 34.167 64.81 34.197 64.99C34.237 65.16 34.337 65.3 34.497 65.41C34.667 65.51 34.932 65.56 35.292 65.56C35.412 65.56 35.552 65.55 35.712 65.53V66.97C35.202 67.03 34.802 67.06 34.512 67.06ZM40.0593 60.7V64.225C40.0593 64.575 40.0743 64.835 40.1043 65.005C40.1443 65.175 40.2443 65.31 40.4043 65.41C40.5643 65.51 40.8243 65.56 41.1843 65.56C41.3943 65.56 41.6093 65.54 41.8293 65.5V66.94C41.7193 66.96 41.5193 66.985 41.2293 67.015C40.9493 67.045 40.6743 67.06 40.4043 67.06C39.6743 67.06 39.1293 66.955 38.7693 66.745C38.4193 66.525 38.1993 66.255 38.1093 65.935C38.0193 65.605 37.9743 65.185 37.9743 64.675V60.7H36.6543V59.08H37.9893V56.5H40.0593V59.08H41.8293V60.7H40.0593ZM46.9428 67.12C46.1128 67.12 45.4128 66.935 44.8428 66.565C44.2828 66.185 43.8628 65.685 43.5828 65.065C43.3028 64.445 43.1628 63.765 43.1628 63.025C43.1628 62.285 43.2978 61.605 43.5678 60.985C43.8478 60.355 44.2728 59.85 44.8428 59.47C45.4128 59.09 46.1128 58.9 46.9428 58.9C47.7727 58.9 48.4727 59.09 49.0427 59.47C49.6127 59.84 50.0377 60.335 50.3177 60.955C50.5977 61.575 50.7377 62.255 50.7377 62.995C50.7377 63.735 50.5977 64.42 50.3177 65.05C50.0377 65.67 49.6127 66.17 49.0427 66.55C48.4727 66.93 47.7727 67.12 46.9428 67.12ZM46.9428 65.44C47.5227 65.44 47.9577 65.21 48.2477 64.75C48.5477 64.28 48.6977 63.695 48.6977 62.995C48.6977 62.295 48.5477 61.72 48.2477 61.27C47.9577 60.81 47.5227 60.58 46.9428 60.58C46.3628 60.58 45.9278 60.81 45.6378 61.27C45.3478 61.72 45.2028 62.295 45.2028 62.995C45.2028 63.695 45.3478 64.28 45.6378 64.75C45.9378 65.21 46.3728 65.44 46.9428 65.44ZM58.3288 58.315H55.4788V67H53.4088V58.315H50.5588V56.5H58.3288V58.315ZM62.0306 67.12C61.2006 67.12 60.5006 66.93 59.9306 66.55C59.3606 66.16 58.9356 65.655 58.6556 65.035C58.3856 64.405 58.2506 63.73 58.2506 63.01C58.2506 62.29 58.3856 61.62 58.6556 61C58.9356 60.37 59.3606 59.86 59.9306 59.47C60.5006 59.08 61.2056 58.885 62.0456 58.885C63.1556 58.885 64.0356 59.24 64.6856 59.95C65.3456 60.66 65.6756 61.685 65.6756 63.025V63.595H60.2456V63.715C60.2456 64.195 60.4106 64.61 60.7406 64.96C61.0706 65.3 61.4856 65.47 61.9856 65.47C62.3756 65.47 62.7056 65.38 62.9756 65.2C63.2456 65.02 63.4406 64.775 63.5606 64.465H65.6006C65.3906 65.245 64.9806 65.885 64.3706 66.385C63.7606 66.875 62.9806 67.12 62.0306 67.12ZM63.6806 62.245C63.6606 61.615 63.5006 61.15 63.2006 60.85C62.9006 60.55 62.5056 60.4 62.0156 60.4C61.4956 60.4 61.0856 60.565 60.7856 60.895C60.4856 61.225 60.3256 61.675 60.3056 62.245H63.6806ZM70.6881 67.135C69.8481 67.135 69.1431 66.94 68.5731 66.55C68.0031 66.16 67.5781 65.65 67.2981 65.02C67.0281 64.39 66.8931 63.715 66.8931 62.995C66.8931 62.285 67.0281 61.62 67.2981 61C67.5781 60.37 68.0031 59.86 68.5731 59.47C69.1431 59.08 69.8481 58.885 70.6881 58.885C71.7481 58.885 72.5831 59.19 73.1931 59.8C73.8131 60.4 74.1881 61.16 74.3181 62.08H72.2931C72.2231 61.63 72.0531 61.27 71.7831 61C71.5231 60.72 71.1631 60.58 70.7031 60.58C70.0931 60.58 69.6431 60.815 69.3531 61.285C69.0731 61.755 68.9331 62.325 68.9331 62.995C68.9331 63.685 69.0731 64.265 69.3531 64.735C69.6431 65.205 70.0931 65.44 70.7031 65.44C71.1531 65.44 71.5131 65.305 71.7831 65.035C72.0531 64.755 72.2231 64.39 72.2931 63.94H74.3181C74.1881 64.86 73.8131 65.625 73.1931 66.235C72.5831 66.835 71.7481 67.135 70.6881 67.135ZM75.7317 55.855H77.8317V60.295H77.9367C78.1167 59.905 78.4067 59.575 78.8067 59.305C79.2067 59.025 79.6917 58.885 80.2617 58.885C81.2917 58.885 82.0167 59.215 82.4367 59.875C82.8667 60.535 83.0817 61.285 83.0817 62.125V67H81.0117V62.47C81.0117 61.89 80.8717 61.435 80.5917 61.105C80.3217 60.775 79.9317 60.61 79.4217 60.61C78.9217 60.61 78.5317 60.78 78.2517 61.12C77.9717 61.46 77.8317 61.91 77.8317 62.47V67H75.7317V55.855Z" fill="white"/>
<path d="M49.5844 26.2879L41.5351 44.7645C41.4026 45.0685 41.6657 45.3971 41.9817 45.3224L44.019 44.8413L46.4622 44.5029C46.7334 44.4653 46.9661 44.2855 47.0763 44.0282L52.5848 31.1722L58.0964 44.0355C58.205 44.2888 58.4323 44.4673 58.6988 44.5085L60.8553 44.8413L62.6778 45.3086C62.9918 45.3891 63.2606 45.067 63.135 44.7607L55.5742 26.3207C55.3289 25.7224 54.7582 25.3333 54.126 25.3333H51.0188C50.3992 25.3333 49.8374 25.7071 49.5844 26.2879Z" fill="white"/>
</svg>
